<svg width="337" height="55" viewBox="0 0 337 55" fill="none" xmlns="http://www.w3.org/2000/svg">
<g clip-path="url(#clip0_4_6)">
<path d="M0 55V7.28888H7.529V0H33.529V7.28888H41.1414V33.2219H33.529V40.5108H10.8646V55H0ZM10.8646 28.8958H30.1934V11.6091H10.8646V28.8958Z" fill="white"/>
<path d="M56.5389 55V47.7997H49.0099V21.7663H56.5389V14.4892H82.539V21.7663H90.1514V43.4618H97.7936V54.9882H86.8455V47.7879H82.5688V54.9882L56.5389 55ZM59.8746 43.4736H79.2034V26.0157H59.8746V43.4736Z" fill="white"/>
<path d="M111.452 55V47.7997H103.923V21.7663H111.452V14.4892H137.452V21.7663H145.064V33.2101H134.128V26.0157H114.799V43.4736H134.128V36.1847H145.076V47.7997H137.464V55H111.452Z" fill="white"/>
<path d="M172.607 55V7.28888H180.136V0H190.995V7.28888H198.607V21.7663H202.777V7.28888H210.389V0H221.337V7.28888H228.777V55H218.001V11.6091H213.725V26.0157H206.112V47.7997H195.248V26.0157H187.635V11.6091H183.466V55H172.607Z" fill="white"/>
<path d="M246.765 55V47.7997H239.236V21.7663H246.765V14.4892H272.765V21.7663H280.378V43.4618H287.99V54.9882H277.042V47.7879H272.765V54.9882L246.765 55ZM250.101 43.4736H269.43V26.0157H250.101V43.4736Z" fill="white"/>
<path d="M295.859 55V14.4892H329.388V21.7663H337V54.9882H326.052V26.0157H306.723V55H295.859Z" fill="white"/>
</g>
<defs>
<clipPath id="clip0_4_6">
<rect width="337" height="55" fill="white"/>
</clipPath>
</defs>
</svg>
